<?xml version="1.0"?>
<svg xmlns="http://www.w3.org/2000/svg" xmlns:xlink="http://www.w3.org/1999/xlink" xmlns:svgjs="http://svgjs.com/svgjs" version="1.1" width="512" height="512" x="0" y="0" viewBox="0 0 512 512" style="enable-background:new 0 0 512 512" xml:space="preserve" class=""><g><linearGradient xmlns="http://www.w3.org/2000/svg" id="a" gradientTransform="matrix(1 0 0 -1 0 -18530)" gradientUnits="userSpaceOnUse" x1="0" x2="512" y1="-18786" y2="-18786"><stop stop-opacity="1" stop-color="#31d8ff" offset="0"/><stop stop-opacity="1" stop-color="#000000" offset="0.007722007722007722"/><stop stop-opacity="1" stop-color="#000000" offset="1"/></linearGradient><path xmlns="http://www.w3.org/2000/svg" d="m512 256c0 141.386719-114.613281 256-256 256s-256-114.613281-256-256 114.613281-256 256-256 256 114.613281 256 256zm0 0" fill="url(#a)" data-original="url(#a)" style="" class=""/><g xmlns="http://www.w3.org/2000/svg" fill="#fff"><path d="m426 272h-340c-8.285156 0-15-6.714844-15-15s6.714844-15 15-15h340c8.285156 0 15 6.714844 15 15s-6.714844 15-15 15zm0 0" fill="#ffffff" data-original="#ffffff" style="" class=""/><path d="m426 156.746094h-340c-8.285156 0-15-6.714844-15-15s6.714844-15 15-15h340c8.285156 0 15 6.714844 15 15s-6.714844 15-15 15zm0 0" fill="#ffffff" data-original="#ffffff" style="" class=""/><path d="m426 387.253906h-340c-8.285156 0-15-6.714844-15-15s6.714844-15 15-15h340c8.285156 0 15 6.714844 15 15s-6.714844 15-15 15zm0 0" fill="#ffffff" data-original="#ffffff" style="" class=""/></g></g></svg>
